<svg width="263" height="57" viewBox="0 0 263 57" fill="none" xmlns="http://www.w3.org/2000/svg">
						<path d="M0.331405 0.329362H47.687C47.687 0.329362 47.687 9.09601 47.687 18.0974C47.687 26.2334 44.6339 43.5003 24.1855 56.3455C24.1855 56.3455 2.02368 47.1584 0.331405 18.0974C0.331405 18.0974 0.331405 8.5424 0.331405 0.329362Z" fill="#B0263D"/>
						<path d="M24.2172 56.7134L24.0586 56.6468C23.8364 56.5557 1.68523 47.0462 0 18.1149V0H48.0184V18.0974C48.0184 25.2137 45.7127 43.2095 24.3653 56.6258L24.2172 56.7134ZM0.662809 0.658725V18.0974C2.25285 45.3259 22.1865 55.0771 24.1608 55.9741C45.0922 42.747 47.3591 25.0876 47.3591 18.0974V0.658725H0.662809Z" fill="black"/>
						<path d="M36.6096 23.8963C36.6096 23.8963 36.1866 25.2313 34.3074 23.8577L27.8627 23.7036C27.8627 23.7036 27.0201 23.9699 26.9037 23.0939C26.9037 23.0939 27.0588 21.3385 26.9813 21.1878C26.9813 21.1878 27.0201 20.6938 26.1774 20.6938C26.1774 20.6938 24.873 20.8444 24.8342 19.7022C24.8342 19.7022 24.605 18.4793 26.4066 18.5214C26.4066 18.5214 26.9813 18.7877 27.0201 18.0624C27.0201 18.0624 26.9425 13.1044 26.9813 12.7225C26.9813 12.7225 27.1364 12.2635 26.2515 12.1899C26.2515 12.1899 24.9858 12.4562 24.8307 11.6188C24.8307 11.6188 24.7531 10.3609 25.5992 10.2838C25.5992 10.2838 26.6358 10.3609 26.8261 10.0946C26.8261 10.0946 27.0553 10.2453 27.0165 9.33076L27.0553 7.76804C27.0553 7.76804 27.1717 7.34758 27.8239 7.38612C27.8239 7.38612 29.012 7.46321 29.1671 7.34758C29.1671 7.34758 29.4351 7.0042 29.5126 6.85003C29.5126 6.85003 30.1261 6.81149 30.2424 6.96566C30.2424 6.96566 31.1626 7.57533 34.6565 7.34758C34.6565 7.34758 35.1923 7.34758 35.3087 7.50175C35.3087 7.50175 35.9609 7.99579 36.3452 7.46321C36.3452 7.46321 36.9199 7.34758 38.6474 7.38612C38.6474 7.38612 40.5266 7.88367 41.831 6.81499L42.2541 6.89208C42.2541 6.89208 42.79 7.76804 43.1743 7.50175C43.1743 7.50175 44.3271 7.38612 44.5175 7.61387C44.5175 7.61387 44.9018 8.185 44.7079 9.67414C44.7079 9.67414 44.4787 10.3224 45.5893 10.3224C45.5893 10.3224 46.855 10.0946 46.6998 11.2754C46.6998 11.2754 47.0454 12.6104 44.9335 12.4177C44.9335 12.4177 44.6656 12.7996 44.7044 13.0659C44.7044 13.0659 44.6656 17.4142 44.6268 17.9082C44.6268 17.9082 44.588 18.595 45.5082 18.5564C45.5082 18.5564 46.7351 18.4793 46.7739 19.5865C46.7739 19.5865 46.9255 21.0371 45.1627 20.7673C45.1627 20.7673 44.6268 20.8444 44.5492 21.1878L44.4717 23.0939C44.4717 23.0939 44.5105 24.0469 43.4352 23.8192C43.2836 23.8192 37.4487 23.9348 36.9516 23.7807C36.9587 23.7807 36.6872 23.7421 36.6096 23.8963Z" fill="white"/>
						<path d="M24.1538 30.3609C24.1538 30.3609 24.4217 30.2453 24.4993 30.0561C24.4993 30.0561 25.3031 29.979 25.4194 29.8669L27.9543 30.0561C27.9543 30.0561 30.4469 30.2488 31.5222 29.4849C31.5222 29.4849 31.9065 29.4849 32.1744 29.6006C32.1744 29.6006 32.7103 29.7162 32.8655 29.9439L34.3251 29.9054C34.3251 29.9054 35.1712 30.1717 35.0936 30.7078V31.3945C35.0936 31.3945 34.942 32.768 35.3228 32.8451H36.4333C36.4333 32.8451 37.3535 33.2656 37.2407 33.7982C37.2407 33.7982 37.2795 34.562 36.4721 34.7127C36.4721 34.7127 35.6648 34.9404 35.3968 34.9054C35.3968 34.9054 35.1289 35.2488 35.0901 35.6692L34.9773 40.6657C34.9773 40.6657 34.8997 41.1983 35.7071 41.1247C35.7071 41.1247 36.8952 41.0091 37.2442 41.6573C37.2442 41.6573 37.551 42.7645 36.9375 42.9538L36.4757 43.1815L35.4779 43.3357C35.4779 43.3357 35.0548 43.3742 35.0161 44.0995V45.4345C35.0161 45.4345 35.0548 46.349 34.3251 46.349L33.2497 46.4261C33.2497 46.4261 32.9818 46.6538 32.4424 46.5032C32.4424 46.5032 25.9201 46.6188 25.6874 46.5417L24.9188 46.6959C24.9188 46.6959 24.0727 47.4597 23.3852 46.8851L22.8493 46.4646C22.8493 46.4646 22.465 46.5417 22.3134 46.5032C22.1583 46.4646 15.1001 46.5802 15.1001 46.5802C15.1001 46.5802 13.6017 46.7344 13.4889 46.2369C13.4889 46.2369 13.295 44.2922 13.3725 44.0645C13.3725 44.0645 13.3725 43.4933 13.027 43.4548C13.027 43.4548 11.5322 43.3777 11.4899 43.2235C11.4899 43.2235 10.6825 42.6524 10.9152 42.0813C10.9152 42.0813 11.1831 41.3175 11.9905 41.2439C11.9905 41.2439 13.2174 41.4366 13.2174 41.0932C13.2174 41.0932 13.295 40.8655 13.295 40.4835C13.295 40.4835 13.3725 35.946 13.3337 35.6412C13.3337 35.6412 13.4501 35.0701 12.9495 35.0701C12.9495 35.0701 12.4136 35.2207 12.0681 34.993C12.0681 34.993 11.1479 35.0315 10.9575 34.3062C10.9575 34.3062 10.8024 33.8472 11.0351 33.4688C11.0351 33.4688 11.4581 32.6279 12.685 32.8977C12.685 32.8977 13.3761 33.0869 13.4536 32.5929L13.4148 30.7638C13.4148 30.7638 13.2632 30.2698 14.2222 30C14.2222 30 15.4491 30.3434 15.8334 29.7337C15.8334 29.7337 16.2565 28.8963 16.602 29.4674C16.602 29.4674 17.3318 30.1542 19.3272 30.0771C19.3272 30.0771 22.7823 29.8108 22.8563 29.9615C22.8563 29.9615 23.699 30.0771 23.9316 30.3434L24.1538 30.3609Z" fill="white"/>
						<path d="M13.6687 23.9874C13.6687 23.9874 13.2456 25.3224 11.3665 23.9488L4.92171 23.7947C4.92171 23.7947 4.0791 24.061 3.96275 23.185C3.96275 23.185 4.11435 21.4296 4.04032 21.2789C4.04032 21.2789 4.0791 20.7814 3.23648 20.7814C3.23648 20.7814 1.93202 20.9355 1.89324 19.7898C1.89324 19.7898 1.66408 18.5704 3.46565 18.609C3.46565 18.609 4.04032 18.8753 4.0791 18.1535C4.0791 18.1535 4.00153 13.1955 4.04032 12.8136C4.04032 12.8136 4.19544 12.3546 3.31052 12.281C3.31052 12.281 2.04484 12.5473 1.88971 11.7099C1.88971 11.7099 1.81215 10.452 2.65829 10.3749C2.65829 10.3749 3.69481 10.452 3.88519 10.1857C3.88519 10.1857 4.11435 10.3399 4.0791 9.42186L4.11788 7.85914C4.11788 7.85914 4.23422 7.43868 4.88646 7.47722C4.88646 7.47722 6.07458 7.55431 6.2297 7.43868C6.2297 7.43868 6.49765 7.0953 6.57521 6.94464C6.57521 6.94464 7.18866 6.9061 7.305 7.06027C7.305 7.06027 8.22518 7.66994 11.719 7.44219C11.719 7.44219 12.2549 7.44219 12.3713 7.59635C12.3713 7.59635 13.0235 8.0904 13.4078 7.55781C13.4078 7.55781 13.9825 7.44219 15.71 7.48073C15.71 7.48073 17.5891 7.97477 18.8936 6.9096L19.3167 6.98668C19.3167 6.98668 19.8525 7.86265 20.2368 7.59635C20.2368 7.59635 21.3897 7.48073 21.5801 7.71198C21.5801 7.71198 21.9644 8.28311 21.7705 9.77225C21.7705 9.77225 21.5413 10.4205 22.6554 10.4205C22.6554 10.4205 23.9211 10.1927 23.7659 11.3735C23.7659 11.3735 24.1114 12.7085 21.9996 12.5193C21.9996 12.5193 21.7317 12.9012 21.7705 13.1675C21.7705 13.1675 21.7317 17.5158 21.6929 18.0098C21.6929 18.0098 21.6541 18.6966 22.5743 18.658C22.5743 18.658 23.8012 18.5809 23.84 19.6882C23.84 19.6882 23.9916 21.1352 22.2288 20.869C22.2288 20.869 21.6929 20.946 21.6153 21.2894L21.5378 23.1955C21.5378 23.1955 21.5766 24.1486 20.5013 23.9208C20.3497 23.9208 14.5148 24.0364 14.0177 23.8823C14.0142 23.8753 13.7462 23.8367 13.6687 23.9874Z" fill="white"/>
						<path d="M36.6096 23.8963C36.6096 23.8963 36.1866 25.2313 34.3074 23.8577L27.8627 23.7036C27.8627 23.7036 27.0201 23.9699 26.9037 23.0939C26.9037 23.0939 27.0588 21.3385 26.9813 21.1878C26.9813 21.1878 27.0201 20.6938 26.1774 20.6938C26.1774 20.6938 24.873 20.8444 24.8342 19.7022C24.8342 19.7022 24.605 18.4793 26.4066 18.5214C26.4066 18.5214 26.9813 18.7877 27.0201 18.0624C27.0201 18.0624 26.9425 13.1044 26.9813 12.7225C26.9813 12.7225 27.1364 12.2635 26.2515 12.1899C26.2515 12.1899 24.9858 12.4562 24.8307 11.6188C24.8307 11.6188 24.7531 10.3609 25.5992 10.2838C25.5992 10.2838 26.6358 10.3609 26.8261 10.0946C26.8261 10.0946 27.0553 10.2453 27.0165 9.33076L27.0553 7.76804C27.0553 7.76804 27.1717 7.34758 27.8239 7.38612C27.8239 7.38612 29.012 7.46321 29.1671 7.34758C29.1671 7.34758 29.4351 7.0042 29.5126 6.85003C29.5126 6.85003 30.1261 6.81149 30.2424 6.96566C30.2424 6.96566 31.1626 7.57533 34.6565 7.34758C34.6565 7.34758 35.1923 7.34758 35.3087 7.50175C35.3087 7.50175 35.9609 7.99579 36.3452 7.46321C36.3452 7.46321 36.9199 7.34758 38.6474 7.38612C38.6474 7.38612 40.5266 7.88367 41.831 6.81499L42.2541 6.89208C42.2541 6.89208 42.79 7.76804 43.1743 7.50175C43.1743 7.50175 44.3271 7.38612 44.5175 7.61387C44.5175 7.61387 44.9018 8.185 44.7079 9.67414C44.7079 9.67414 44.4787 10.3224 45.5893 10.3224C45.5893 10.3224 46.855 10.0946 46.6998 11.2754C46.6998 11.2754 47.0454 12.6104 44.9335 12.4177C44.9335 12.4177 44.6656 12.7996 44.7044 13.0659C44.7044 13.0659 44.6656 17.4142 44.6268 17.9082C44.6268 17.9082 44.588 18.595 45.5082 18.5564C45.5082 18.5564 46.7351 18.4793 46.7739 19.5865C46.7739 19.5865 46.9255 21.0371 45.1627 20.7673C45.1627 20.7673 44.6268 20.8444 44.5492 21.1878L44.4717 23.0939C44.4717 23.0939 44.5105 24.0469 43.4352 23.8192C43.2836 23.8192 37.4487 23.9348 36.9516 23.7807C36.9587 23.7807 36.6872 23.7421 36.6096 23.8963Z" fill="black"/>
						<path d="M29.3575 8.18501C29.3575 8.18501 29.4351 8.94885 29.4351 9.13805C29.4351 9.33077 29.3187 20.1577 29.3187 20.1577C29.3187 20.1577 29.4351 20.9951 28.7053 21.4156C28.7053 21.4156 28.5149 21.4926 28.4761 20.9566L28.5537 9.51647C28.5537 9.51997 28.6312 8.10792 29.3575 8.18501Z" fill="white"/>
						<path d="M28.0918 21.5312C28.0918 21.5312 28.1694 10.7779 28.1306 10.5886C28.0918 10.3994 28.1694 10.7393 28.1694 10.7393C28.1694 10.7393 28.0566 8.87176 28.5537 8.10792C28.5537 8.10792 28.3986 7.4597 27.5172 8.25858L27.4784 9.8213C27.4784 9.8213 27.4784 10.6973 26.671 10.6587C26.671 10.6587 25.7508 10.6202 25.3278 11.0406C25.3278 11.0406 25.0986 11.8816 25.98 11.7274C25.98 11.7274 27.362 11.7274 27.4396 12.2985L27.362 18.0554C27.362 18.0554 27.6688 19.0084 26.5935 19.0084C26.5935 19.0084 25.289 18.9313 25.3278 19.7337C25.3278 19.7337 25.5957 20.4205 26.7098 20.1927C26.7098 20.1927 27.5136 20.3434 27.4784 21.1072V22.5578C27.4784 22.5578 27.4008 23.1289 28.1694 23.1675H34.1558C34.1558 23.1675 34.4626 23.206 34.4626 22.8241C34.4626 22.8241 34.4238 22.5193 33.9619 22.5193L28.9732 22.4422C28.9768 22.4457 28.1694 22.712 28.0918 21.5312Z" fill="white"/>
						<path d="M29.1283 21.6083C29.1283 21.6083 28.9732 22.1409 29.5514 22.0287H33.5036L34.5789 22.2565C34.5789 22.2565 35.693 21.9902 34.5789 21.3805C34.5789 21.3805 31.0498 21.4191 30.7431 21.342C30.7431 21.342 30.0133 21.1528 29.8581 21.1142C29.8581 21.1107 29.4738 20.9601 29.1283 21.6083Z" fill="white"/>
						<path d="M35.6894 22.1409C35.6894 22.1409 34.9597 22.1409 34.9984 23.0939C34.9984 23.0939 35.076 23.8192 35.8446 23.8192C35.8446 23.8192 36.5356 23.7036 36.458 22.9432C36.458 22.9432 36.035 21.9902 35.6894 22.1409Z" fill="white"/>
						<path d="M36.2289 21.7589C36.2289 21.7589 36.5744 21.377 36.8035 21.377C36.8035 21.377 40.6429 21.7204 41.2951 21.2614C41.2951 21.2614 41.8698 21.1458 42.0249 21.2614C42.0249 21.2614 42.5996 21.7169 42.5996 21.9867C42.5996 21.9867 42.5608 22.3301 41.8698 22.1373C41.8698 22.1373 37.5333 22.1759 37.3042 22.1759C37.3042 22.1794 36.1125 22.4457 36.2289 21.7589Z" fill="white"/>
						<path d="M36.8423 22.9047C36.8423 22.9047 36.8423 22.5999 37.3782 22.5999L42.7512 22.5613C42.7512 22.5613 43.2483 22.8276 43.2483 21.9131C43.2483 21.9131 43.4457 17.7575 43.4634 13.178C43.4704 11.8185 43.5303 10.3889 43.4775 9.06097C43.4775 9.06097 43.3611 8.48984 43.2095 8.37421C43.2095 8.37421 43.2095 7.76454 43.8617 7.99229C43.8617 7.99229 44.4364 8.03083 44.2848 8.9068L44.3236 10.2418C44.3236 10.2418 44.2072 10.8129 45.2438 10.6622C45.2438 10.6622 46.2803 10.8164 46.3191 11.1948C46.3191 11.1948 46.6258 11.9587 45.3989 11.8816H44.5175C44.5175 11.8816 44.1332 12.1093 44.2496 12.5683L44.1332 18.0974C44.1332 18.0974 44.0556 19.0505 44.9758 19.0119C44.9758 19.0119 45.9348 18.9734 46.1287 19.2782C46.1287 19.2782 46.7809 20.2313 45.3601 20.1542C45.3601 20.1542 44.4787 20.1156 44.2848 20.2698C44.2848 20.2698 44.1297 20.459 44.0169 22.253C44.0169 22.253 44.0944 23.3217 43.2871 23.206C43.2871 23.206 37.9529 23.2831 37.4558 23.1675C37.4558 23.171 36.9199 23.3252 36.8423 22.9047Z" fill="white"/>
						<path d="M29.9357 7.83812L29.8194 20.0806C29.8194 20.0806 29.7806 20.6517 30.7395 20.7673C30.7395 20.7673 31.8501 20.883 32.1216 20.7673C32.1216 20.7673 32.8514 20.7288 34.7305 20.8059C34.7305 20.8059 35.1923 21.2649 35.2311 20.6903C35.2311 20.6903 35.5378 10.7743 35.3862 8.71759C35.3862 8.71759 35.3475 7.84162 34.6952 7.80308C34.6952 7.80308 31.7796 8.03083 31.5116 7.80308L30.3588 7.49824C30.3588 7.49474 29.8969 7.53328 29.9357 7.83812Z" fill="white"/>
						<path d="M35.9962 8.44779C35.9962 8.44779 35.8798 14.2046 35.9186 14.3973L35.841 19.2397L35.6859 20.918C35.6859 20.918 35.9151 21.2614 36.109 21.0336C36.109 21.0336 37.3359 20.7288 38.1045 20.8444C38.1045 20.8444 40.5618 21.0722 41.0589 20.6903C41.0589 20.6903 41.4432 20.8795 41.556 20.2698C41.556 20.2698 41.7111 9.59005 41.6336 9.40084C41.6336 9.40084 41.7852 7.87666 41.7111 7.72249C41.7111 7.72249 41.6724 7.37911 41.0201 7.68395C41.0201 7.68395 41.0977 7.98878 37.4522 7.87316C37.4558 7.87666 36.0737 7.83812 35.9962 8.44779Z" fill="white"/>
						<path d="M42.099 8.29712L42.0602 20.3469C42.0602 20.3469 42.3669 21.4156 42.8675 21.2999C42.8675 21.2999 42.9451 21.0722 42.9804 20.6903L43.1355 9.21163C43.1355 9.21513 42.7512 7.38262 42.099 8.29712Z" fill="white"/>
						<path d="M37.3888 11.9061C37.2724 11.6013 38.041 11.5627 38.041 11.5627L38.4253 11.6398C38.6932 11.6013 38.9612 11.7169 38.9612 11.7169C39.2291 12.1374 38.7708 12.3651 38.7708 12.3651L38.6192 12.8591C38.5804 13.2796 38.6192 16.9026 38.6192 16.9026C38.6968 17.0953 39.0035 17.4387 39.0035 17.4387C39.0035 17.7821 38.5804 17.705 38.5804 17.705L37.4663 17.7435C37.1208 17.705 37.2372 17.3231 37.2372 17.3231C37.6215 17.1303 37.7378 16.4436 37.7378 16.4436V12.6664L37.3888 11.9061Z" fill="black"/>
						<path d="M32.2097 15.452L32.1321 16.6363L32.4776 17.2074C32.7068 17.5123 32.3225 17.74 32.3225 17.74L31.0956 17.6244C30.8665 17.5123 31.0956 17.1303 31.0956 17.1303C31.4023 16.9411 31.4411 16.4436 31.4411 16.4436L31.4023 14.2327L31.4411 12.6314C31.4411 12.4422 31.1344 12.0953 31.1344 12.0953C30.8665 12.0568 30.9405 11.7134 30.9405 11.7134C31.0181 11.5242 31.6703 11.6363 31.6703 11.6363H33.2815C34.8151 12.1303 34.5859 13.2376 34.5859 13.2376C34.7023 14.3448 33.5106 14.8003 33.5106 14.8003L33.4331 15.41L34.5472 17.1654C34.7376 17.3196 34.6988 17.4702 34.6988 17.4702C34.5472 17.8907 33.9302 17.4702 33.9302 17.4702L32.5482 15.3364C32.4389 15.1857 32.2097 15.452 32.2097 15.452ZM32.2485 12.4387C32.2873 13.2796 32.2873 14.4219 32.2873 14.4219C33.0171 14.993 33.4366 14.1941 33.4366 14.1941C34.3956 13.2796 33.4366 12.4422 33.285 12.2109C33.1334 11.9832 32.3648 12.1724 32.3648 12.1724L32.2485 12.4387Z" fill="black"/>
						<path d="M24.1538 30.3609C24.1538 30.3609 24.4217 30.2453 24.4993 30.0561C24.4993 30.0561 25.3031 29.979 25.4194 29.8669L27.9543 30.0561C27.9543 30.0561 30.4469 30.2488 31.5222 29.4849C31.5222 29.4849 31.9065 29.4849 32.1744 29.6006C32.1744 29.6006 32.7103 29.7162 32.8655 29.9439L34.3251 29.9054C34.3251 29.9054 35.1712 30.1717 35.0936 30.7078V31.3945C35.0936 31.3945 34.942 32.768 35.3228 32.8451H36.4333C36.4333 32.8451 37.3535 33.2656 37.2407 33.7982C37.2407 33.7982 37.2795 34.562 36.4721 34.7127C36.4721 34.7127 35.6648 34.9404 35.3968 34.9054C35.3968 34.9054 35.1289 35.2488 35.0901 35.6692L34.9773 40.6657C34.9773 40.6657 34.8997 41.1983 35.7071 41.1247C35.7071 41.1247 36.8952 41.0091 37.2442 41.6573C37.2442 41.6573 37.551 42.7645 36.9375 42.9538L36.4757 43.1815L35.4779 43.3357C35.4779 43.3357 35.0548 43.3742 35.0161 44.0995V45.4345C35.0161 45.4345 35.0548 46.349 34.3251 46.349L33.2497 46.4261C33.2497 46.4261 32.9818 46.6538 32.4424 46.5032C32.4424 46.5032 25.9201 46.6188 25.6874 46.5417L24.9188 46.6959C24.9188 46.6959 24.0727 47.4597 23.3852 46.8851L22.8493 46.4646C22.8493 46.4646 22.465 46.5417 22.3134 46.5032C22.1583 46.4646 15.1001 46.5802 15.1001 46.5802C15.1001 46.5802 13.6017 46.7344 13.4889 46.2369C13.4889 46.2369 13.295 44.2922 13.3725 44.0645C13.3725 44.0645 13.3725 43.4933 13.027 43.4548C13.027 43.4548 11.5322 43.3777 11.4899 43.2235C11.4899 43.2235 10.6825 42.6524 10.9152 42.0813C10.9152 42.0813 11.1831 41.3175 11.9905 41.2439C11.9905 41.2439 13.2174 41.4366 13.2174 41.0932C13.2174 41.0932 13.295 40.8655 13.295 40.4835C13.295 40.4835 13.3725 35.946 13.3337 35.6412C13.3337 35.6412 13.4501 35.0701 12.9495 35.0701C12.9495 35.0701 12.4136 35.2207 12.0681 34.993C12.0681 34.993 11.1479 35.0315 10.9575 34.3062C10.9575 34.3062 10.8024 33.8472 11.0351 33.4688C11.0351 33.4688 11.4581 32.6279 12.685 32.8977C12.685 32.8977 13.3761 33.0869 13.4536 32.5929L13.4148 30.7638C13.4148 30.7638 13.2632 30.2698 14.2222 30C14.2222 30 15.4491 30.3434 15.8334 29.7337C15.8334 29.7337 16.2565 28.8963 16.602 29.4674C16.602 29.4674 17.3318 30.1542 19.3272 30.0771C19.3272 30.0771 22.7823 29.8108 22.8563 29.9615C22.8563 29.9615 23.699 30.0771 23.9316 30.3434L24.1538 30.3609Z" fill="black"/>
						<path d="M25.148 45.3504C25.148 45.3504 25.6098 45.1226 25.9165 45.1962C26.2233 45.2733 30.7149 45.1577 30.7149 45.1577C30.7149 45.1577 32.6716 45.3118 32.9783 45.0455L33.4401 44.8914C33.4401 44.8914 33.6305 44.6636 33.6305 44.3588C33.6305 44.054 33.6693 43.0238 33.6693 43.0238L33.7821 42.6419C33.7821 42.6419 33.7433 42.26 33.7821 32.0778C33.7821 32.0778 33.9372 31.2754 33.4366 30.7814C33.4366 30.7814 33.4366 30.4765 33.5917 30.5151C33.7433 30.5536 33.6693 30.5536 33.6693 30.5536C33.6693 30.5536 34.3603 30.3609 34.4731 30.6272C34.4731 30.6272 34.7799 31.5417 34.5119 32.0778C34.5119 32.0778 34.4343 33.185 35.009 33.185C35.009 33.185 35.2382 33.4128 35.7 33.3006C35.7 33.3006 36.6978 33.4163 36.6978 33.7211C36.6978 33.7211 36.6978 34.4078 36.0068 34.2922L35.0866 34.3693C35.0866 34.3693 34.4731 34.4849 34.5507 35.2067C34.6283 35.932 34.5119 41.1177 34.5119 41.1177C34.5119 41.1177 34.5119 41.7274 35.4709 41.6889C35.4709 41.6889 36.659 41.6503 36.659 41.9937C36.659 41.9937 36.9657 42.754 36.1196 42.7961C36.1196 42.7961 34.5084 42.7575 34.6247 43.213C34.6247 43.213 34.5084 44.2817 34.4343 44.4709C34.4343 44.4709 34.5895 45.3504 34.3956 45.501C34.3956 45.501 34.2827 45.9986 33.2462 45.9215C33.2462 45.9215 26.6463 45.883 25.6098 45.9601C25.6098 45.9601 24.9964 45.883 25.148 45.3504Z" fill="white"/>
						<path d="M23.9598 44.6251C23.9598 44.6251 24.6121 44.7407 24.6121 45.3504C24.6121 45.9601 24.6509 46.3034 24.2666 46.3805C23.8823 46.4541 23.4592 46.342 23.3464 45.8444C23.23 45.3504 23.424 44.7407 23.9598 44.6251Z" fill="white"/>
						<path d="M24.7284 44.3203C24.7284 44.3203 25.4194 43.8648 25.6874 43.9383C25.6874 43.9383 29.1777 44.1661 30.253 43.9769C31.3283 43.7842 30.6761 43.9383 30.6761 43.9383C30.6761 43.9383 31.5963 43.9383 31.8642 43.595C31.8642 43.595 32.1321 43.5179 32.2873 43.7842L32.8619 44.3938C32.8619 44.3938 32.9007 44.7758 32.2485 44.7372C32.2485 44.7372 25.9941 44.7372 25.8037 44.7758C25.8002 44.7758 24.6121 44.9685 24.7284 44.3203Z" fill="white"/>
						<path d="M15.6324 30.7814C15.6324 30.7814 15.9004 30.7814 15.8616 31.2404L15.784 42.7575C15.784 42.7575 15.8968 43.5214 15.2446 44.0154C15.2446 44.0154 14.8991 44.4359 14.8991 43.7842L15.0507 32.0392C15.0578 32.0392 15.0965 31.1633 15.6324 30.7814Z" fill="white"/>
						<path d="M15.019 30.8584C15.019 30.8584 14.5571 31.6994 14.5959 31.8886L14.5571 34.4429C14.5571 34.4429 14.5183 36.0827 14.5571 36.2754C14.5959 36.4646 14.5183 41.2719 14.5183 41.2719C14.5183 41.2719 14.4796 42.1864 14.5183 42.4912V44.5515C14.5183 44.5515 14.4408 45.466 15.1318 45.2348C15.1318 45.2348 21.8868 45.0841 22.3064 45.1962C22.3064 45.1962 22.9198 45.3118 22.6906 45.6167C22.6906 45.6167 22.6906 45.883 22.2711 45.8059C22.2711 45.8059 19.0875 46.1107 16.2071 45.9951C16.2071 45.9951 14.2892 46.1107 14.1728 45.8795C14.1728 45.8795 13.8661 45.8409 13.8661 44.7337C13.8661 44.7337 13.8661 43.7036 13.7885 43.5144C13.7885 43.5144 13.8661 42.9818 12.9072 42.8661C12.9072 42.8661 11.5639 43.0939 11.5251 42.295C11.5251 42.295 11.7155 41.7239 13.02 41.801C13.02 41.801 13.9789 41.9516 13.785 41.1913L13.9014 35.5501C13.9014 35.5501 14.0177 34.5585 13.362 34.52C13.362 34.52 12.7485 34.4814 12.5546 34.5585C12.5546 34.5585 11.444 34.5585 11.5181 33.9103C11.5181 33.9103 11.9024 33.2235 13.0129 33.3777C13.0129 33.3777 13.8555 33.5319 13.8943 32.5753C13.8943 32.5753 13.8555 30.6307 14.3174 30.5536C14.328 30.5536 15.2869 30.5921 15.019 30.8584Z" fill="white"/>
						<path d="M16.1718 43.4793C16.1718 43.4793 16.7077 44.0505 17.5926 44.0154L22.8105 44.0925C22.8105 44.0925 23.3852 44.131 23.3464 44.4359C23.3464 44.4359 23.2688 44.8914 22.5778 44.7407L16.2847 44.6636L15.5936 44.7022C15.5936 44.7022 15.1318 44.6251 15.8616 43.7491L16.1718 43.4793Z" fill="white"/>
						<path d="M32.2873 42.9853C32.2873 42.9853 32.7491 43.8612 32.9783 43.9769C32.9783 43.9769 33.4014 44.4709 33.285 43.5949L33.3626 32.6104C33.3626 32.6104 33.2462 32.2284 33.3626 31.6188L32.9007 30.7778C32.9007 30.7778 32.4036 30.3959 32.4036 31.0056L32.326 42.712L32.2873 42.9853Z" fill="white"/>
						<path d="M23.7695 37.7575C23.7695 37.7575 23.8082 38.672 23.6919 39.548C23.6284 40.0245 23.847 42.2565 23.6531 43.3987C23.6531 43.3987 23.6143 43.7807 22.8105 43.4373C22.8105 43.4373 17.8994 43.5529 17.7442 43.3987C17.7442 43.3987 16.401 43.4373 16.2847 42.7505C16.2847 42.7505 16.475 37.5263 16.3622 37.3336C16.3622 37.3336 16.2847 34.4744 16.3622 34.2081C16.3622 34.2081 16.4786 31.5767 16.401 31.2719C16.401 31.2719 16.4398 30.6622 16.3234 30.3574C16.3234 30.3574 16.3234 29.9755 16.9757 30.2067C16.9757 30.2067 17.2048 30.6272 18.4705 30.4345C18.4705 30.4345 19.3907 30.5886 20.2756 30.473C20.2756 30.473 22.2323 30.3224 22.7329 30.473C22.7329 30.473 23.498 30.3223 23.7307 31.1598L23.6919 33.5249L23.9211 34.2887L24.189 34.096L24.3054 33.5249L24.3441 31.0091C24.3441 31.0091 24.4993 30.5501 25.1127 30.4765C25.1127 30.4765 26.0717 30.3609 26.2268 30.438C26.3819 30.5151 28.4514 30.6272 29.0261 30.5151C29.6008 30.3994 29.7171 30.897 31.4447 30.0175C31.4447 30.0175 31.9065 30.0561 31.9065 30.3609C31.9065 30.3609 31.7514 33.602 31.9065 34.2116C31.9065 34.2116 31.9065 40.1612 31.7902 40.5816L31.8677 42.4877C31.8677 42.4877 31.9453 43.3287 30.602 43.4022C30.602 43.4022 31.4447 43.5179 26.1492 43.3672C26.1492 43.3672 25.3031 43.3287 24.3829 43.7491C24.3829 43.7491 24.1925 43.7106 24.1925 43.2165C24.1925 43.2165 24.3441 41.4226 24.1925 39.6706L24.115 37.726L23.7695 37.7575Z" fill="white"/>
						<path d="M20.3144 35.0525C20.3144 35.0525 20.4307 37.8731 20.3144 38.2551L20.2756 38.8647C20.2756 38.8647 20.4272 39.2817 20.6599 39.4359C20.6599 39.4359 20.8503 39.9685 20.392 39.9299C20.392 39.9299 19.433 39.8528 19.2038 39.8914C19.2038 39.8914 18.668 39.8914 19.2038 39.2046C19.2038 39.2046 19.3942 38.9383 19.3554 38.2516C19.3554 38.2516 19.3554 35.049 19.433 34.8563C19.433 34.8563 19.5106 34.4359 19.2426 34.3202L18.7808 34.3588L18.2061 34.8949C18.2061 34.8949 18.0898 35.466 17.8218 34.8563V34.5515L18.1673 33.637L18.3965 33.5984C18.3965 33.5984 18.742 33.8262 19.0487 33.9033H20.8538L21.506 33.5984C21.506 33.5984 21.774 33.637 21.6964 33.9804C21.6964 33.9804 21.8092 34.8598 21.3121 34.972C21.3121 34.972 21.0054 34.8598 20.8538 34.4394C20.8538 34.4429 20.3532 34.1766 20.3144 35.0525Z" fill="black"/>
						<path d="M28.7934 34.0224C28.7934 34.0224 27.3374 33.9068 27.295 35.4695C27.295 35.4695 27.1434 36.5382 28.7546 37.2249C28.7546 37.2249 29.9428 37.7961 29.8687 38.5214C29.8687 38.5214 29.7136 39.8178 28.4479 39.1696C28.4479 39.1696 27.8345 38.8647 27.8732 38.5214C27.8732 38.5214 27.6829 38.1009 27.4502 38.178C27.4502 38.178 27.1822 38.2551 27.295 39.513C27.295 39.513 27.295 40.007 27.8697 39.513L28.1764 39.5865C28.1764 39.5865 29.213 40.4275 30.0944 39.3973C30.0944 39.3973 31.0533 38.5214 30.3623 37.4527C30.3623 37.4527 29.8652 36.6889 28.9803 36.3069C28.9803 36.3069 28.1341 35.925 27.9438 35.2768C27.9438 35.2768 28.2117 34.131 29.2482 34.7442C29.2482 34.7442 29.6325 35.1997 29.8617 35.2768C29.8617 35.2768 30.1684 35.2768 30.0908 34.59L30.0133 34.0189C30.0133 34.0189 29.9357 33.5985 29.3998 34.0189C29.4104 34.0224 28.9098 34.2151 28.7934 34.0224Z" fill="black"/>
						<path d="M24.1114 33.2235C24.3794 33.4128 24.4182 33.7947 24.4182 33.7947C25.1867 35.8164 25.839 38.7526 25.839 38.7526C26.0329 39.1345 26.3749 39.4394 26.3749 39.4394C27.0271 39.6671 26.3749 39.8598 26.3749 39.8598C26.1069 39.972 25.2255 39.8213 25.2255 39.8213C24.7637 39.7442 24.9576 39.59 24.9576 39.59C25.148 39.4008 24.9964 38.637 24.9964 38.637C24.9576 38.3322 24.6121 37.8346 24.6121 37.8346C24.457 37.761 24.189 38.1009 24.189 38.1009C24.189 38.1009 23.7659 38.2516 23.7272 38.1009C23.6884 37.9467 23.4204 37.7961 23.4204 37.7961C22.9586 37.7961 22.7682 38.9383 22.7682 38.9383C23.0361 39.8914 22.7682 39.7407 22.7682 39.7407C22.539 40.0456 21.8092 39.8178 21.8092 39.8178C21.4637 39.7407 21.6964 39.4744 21.6964 39.4744C22.1195 39.3973 22.2323 38.9418 22.2323 38.9418C22.4262 38.6755 23.6531 33.7176 23.6531 33.7176C23.7695 33.4898 23.8435 33.0308 24.1114 33.2235ZM23.498 35.7393C23.4592 35.932 23.1913 36.9972 23.1913 36.9972L23.4204 37.3791C23.4204 37.3791 24.0339 37.4177 24.263 37.4177C24.4922 37.4177 24.531 37.2285 24.531 37.0357C24.531 36.8465 24.1079 35.7008 24.1079 35.7008L23.9175 35.473L23.498 35.7393Z" fill="black"/>
						<path d="M13.6687 23.9874C13.6687 23.9874 13.2456 25.3224 11.3665 23.9488L4.92171 23.7947C4.92171 23.7947 4.0791 24.061 3.96275 23.185C3.96275 23.185 4.11435 21.4296 4.04032 21.2789C4.04032 21.2789 4.0791 20.7814 3.23648 20.7814C3.23648 20.7814 1.93202 20.9355 1.89324 19.7898C1.89324 19.7898 1.66408 18.5704 3.46565 18.609C3.46565 18.609 4.04032 18.8753 4.0791 18.1535C4.0791 18.1535 4.00153 13.1955 4.04032 12.8136C4.04032 12.8136 4.19544 12.3546 3.31052 12.281C3.31052 12.281 2.04484 12.5473 1.88971 11.7099C1.88971 11.7099 1.81215 10.452 2.65829 10.3749C2.65829 10.3749 3.69481 10.452 3.88519 10.1857C3.88519 10.1857 4.11435 10.3399 4.0791 9.42186L4.11788 7.85914C4.11788 7.85914 4.23422 7.43868 4.88646 7.47722C4.88646 7.47722 6.07458 7.55431 6.2297 7.43868C6.2297 7.43868 6.49765 7.0953 6.57521 6.94464C6.57521 6.94464 7.18866 6.9061 7.305 7.06027C7.305 7.06027 8.22518 7.66994 11.719 7.44219C11.719 7.44219 12.2549 7.44219 12.3713 7.59635C12.3713 7.59635 13.0235 8.0904 13.4078 7.55781C13.4078 7.55781 13.9825 7.44219 15.71 7.48073C15.71 7.48073 17.5891 7.97477 18.8936 6.9096L19.3167 6.98668C19.3167 6.98668 19.8525 7.86265 20.2368 7.59635C20.2368 7.59635 21.3897 7.48073 21.5801 7.71198C21.5801 7.71198 21.9644 8.28311 21.7705 9.77225C21.7705 9.77225 21.5413 10.4205 22.6554 10.4205C22.6554 10.4205 23.9211 10.1927 23.7659 11.3735C23.7659 11.3735 24.1114 12.7085 21.9996 12.5193C21.9996 12.5193 21.7317 12.9012 21.7705 13.1675C21.7705 13.1675 21.7317 17.5158 21.6929 18.0098C21.6929 18.0098 21.6541 18.6966 22.5743 18.658C22.5743 18.658 23.8012 18.5809 23.84 19.6882C23.84 19.6882 23.9916 21.1352 22.2288 20.869C22.2288 20.869 21.6929 20.946 21.6153 21.2894L21.5378 23.1955C21.5378 23.1955 21.5766 24.1486 20.5013 23.9208C20.3497 23.9208 14.5148 24.0364 14.0177 23.8823C14.0142 23.8753 13.7462 23.8367 13.6687 23.9874Z" fill="black"/>
						<path d="M6.41656 8.2761C6.41656 8.2761 6.49412 9.03994 6.49412 9.22915C6.49412 9.41836 6.37777 20.2488 6.37777 20.2488C6.37777 20.2488 6.49412 21.0862 5.76432 21.5067C5.76432 21.5067 5.57394 21.5837 5.53516 21.0476L5.61272 9.60756C5.6092 9.61107 5.68676 8.19902 6.41656 8.2761Z" fill="white"/>
						<path d="M5.15087 21.6223C5.15087 21.6223 5.22843 10.869 5.18965 10.6762C5.15087 10.487 5.22844 10.8304 5.22844 10.8304C5.22844 10.8304 5.11562 8.96286 5.61272 8.19902C5.61272 8.19902 5.4576 7.55081 4.5762 8.34968L4.53742 9.9124C4.53742 9.9124 4.53742 10.7884 3.73006 10.7533C3.73006 10.7533 2.80989 10.7148 2.38682 11.1352C2.38682 11.1352 2.15765 11.9727 3.03905 11.822C3.03905 11.822 4.42108 11.822 4.49864 12.3931L4.42108 18.15C4.42108 18.15 4.7278 19.103 3.6525 19.103C3.6525 19.103 2.34804 19.0259 2.38682 19.8283C2.38682 19.8283 2.65476 20.5151 3.76884 20.2873C3.76884 20.2873 4.57268 20.4415 4.53742 21.2018V22.6489C4.53742 22.6489 4.45986 23.22 5.22844 23.2586H11.2149C11.2149 23.2586 11.5216 23.2971 11.5216 22.9152C11.5216 22.9152 11.4828 22.6104 11.021 22.6104L6.03227 22.5333C6.03227 22.5403 5.22491 22.8066 5.15087 21.6223Z" fill="white"/>
						<path d="M6.1874 21.6994C6.1874 21.6994 6.0358 22.2319 6.61047 22.1198H10.5626L11.6379 22.3476C11.6379 22.3476 12.752 22.0813 11.6379 21.4716C11.6379 21.4716 8.10884 21.5102 7.80211 21.4331C7.80211 21.4331 7.07232 21.2439 6.92072 21.2053C6.91367 21.2053 6.52938 21.0512 6.1874 21.6994Z" fill="white"/>
						<path d="M12.7485 22.2355C12.7485 22.2355 12.0187 22.2355 12.0575 23.1885C12.0575 23.1885 12.135 23.9138 12.9036 23.9138C12.9036 23.9138 13.5946 23.7982 13.5171 23.0378C13.5135 23.0343 13.094 22.0813 12.7485 22.2355Z" fill="white"/>
						<path d="M13.2844 21.8535C13.2844 21.8535 13.6299 21.4716 13.8591 21.4716C13.8591 21.4716 17.6949 21.815 18.3471 21.356C18.3471 21.356 18.9218 21.2439 19.0769 21.356C19.0769 21.356 19.6516 21.815 19.6516 22.0813C19.6516 22.0813 19.6128 22.4247 18.9218 22.2355C18.9218 22.2355 14.5853 22.274 14.3562 22.274C14.3597 22.274 13.168 22.5403 13.2844 21.8535Z" fill="white"/>
						<path d="M13.8978 22.9958C13.8978 22.9958 13.8978 22.691 14.4337 22.691L19.8067 22.6524C19.8067 22.6524 20.3038 22.9187 20.3038 22.0042C20.3038 22.0042 20.5013 17.8486 20.5189 13.2691C20.5224 11.9096 20.5859 10.48 20.533 9.15207C20.533 9.15207 20.4166 8.58094 20.265 8.46531C20.265 8.46531 20.265 7.85564 20.9173 8.08339C20.9173 8.08339 21.4919 8.12194 21.3403 8.9979L21.3791 10.3329C21.3791 10.3329 21.2628 10.904 22.2993 10.7533C22.2993 10.7533 23.3358 10.904 23.3746 11.2859C23.3746 11.2859 23.6813 12.0498 22.4544 11.9727H21.573C21.573 11.9727 21.1887 12.2004 21.3051 12.6594L21.1923 18.1885C21.1923 18.1885 21.1147 19.1416 22.0349 19.103C22.0349 19.103 22.9938 19.0645 23.1877 19.3693C23.1877 19.3693 23.84 20.3224 22.4192 20.2488C22.4192 20.2488 21.5378 20.2102 21.3439 20.3609C21.3439 20.3609 21.1887 20.5501 21.0759 22.3441C21.0759 22.3441 21.1535 23.4128 20.3461 23.2971C20.3461 23.2971 15.0119 23.3742 14.5148 23.2586C14.5113 23.2621 13.9754 23.4163 13.8978 22.9958Z" fill="white"/>
						<path d="M6.99123 7.92922L6.87488 20.1717C6.87488 20.1717 6.8361 20.7428 7.79506 20.8584C7.79506 20.8584 8.90914 20.9741 9.17709 20.8584C9.17709 20.8584 9.90688 20.8199 11.786 20.897C11.786 20.897 12.2479 21.3525 12.2866 20.7814C12.2866 20.7814 12.5934 10.8655 12.4382 8.80519C12.4382 8.80519 12.3995 7.92922 11.7472 7.89068C11.7472 7.89068 8.83158 8.11843 8.56363 7.89068L7.41077 7.58585C7.4143 7.58585 6.95244 7.62439 6.99123 7.92922Z" fill="white"/>
						<path d="M19.1545 8.39173L19.1157 20.4415C19.1157 20.4415 19.4224 21.5102 19.9231 21.3945C19.9231 21.3945 20.0006 21.1668 20.0394 20.7849L20.1945 9.30623C20.191 9.30623 19.8067 7.47722 19.1545 8.39173Z" fill="white"/>
						<path d="M13.0552 8.49334C13.0552 8.49334 12.9389 14.2537 12.9777 14.4429L12.9036 19.2852L12.7485 20.9636C12.7485 20.9636 12.9777 21.3069 13.1716 21.0792C13.1716 21.0792 14.3985 20.7744 15.167 20.89C15.167 20.89 17.6244 21.1177 18.1215 20.7358C18.1215 20.7358 18.5058 20.925 18.6186 20.3189C18.6186 20.3189 18.7737 9.6391 18.6962 9.44989C18.6962 9.44989 18.8513 7.92572 18.7737 7.77155C18.7737 7.77155 18.7349 7.42817 18.0827 7.73301C18.0827 7.73301 18.1603 8.03784 14.5148 7.92221C14.5148 7.92221 13.1328 7.88367 13.0552 8.49334Z" fill="white"/>
						<path d="M11.8706 12.0182L11.5251 12.7435C11.5251 12.7435 10.679 16.4401 10.2207 17.2039C10.2207 17.2039 10.1431 17.9678 9.49086 17.3546C9.49086 17.3546 7.99602 12.6629 7.91845 12.5123L7.42135 12.1689C7.42135 12.1689 7.11462 11.7484 7.65051 11.7099L9.07132 11.7484C9.07132 11.7484 9.53317 12.1303 8.91619 12.5508C8.91619 12.5508 8.99375 13.1605 9.79759 15.487C9.79759 15.487 10.0267 16.363 10.2947 15.7148L11.0633 13.0063L10.8341 12.2039C10.8341 12.2039 10.6049 11.822 10.9505 11.7835C10.9505 11.7905 11.7578 11.7134 11.8706 12.0182Z" fill="black"/>
						<path d="M14.0953 12.6314L14.0565 16.6748L13.9437 16.9797C13.9437 16.9797 13.5594 17.4737 13.8273 17.5123C13.8273 17.5123 13.4818 17.74 16.2847 17.7786C16.2847 17.7786 17.36 17.9713 17.092 16.5978C17.092 16.5978 16.9757 16.1037 16.5914 16.8255C16.5914 16.8255 16.475 17.4352 15.0965 17.246C15.0965 17.246 14.7898 16.9797 14.7898 16.6748V14.9965C14.7898 14.9965 14.751 14.576 15.4033 14.6146C15.4033 14.6146 16.1331 15.0736 16.2494 14.8809C16.2494 14.8809 16.5173 14.2712 16.2494 13.8893C16.2494 13.8893 15.9039 13.8507 15.8651 14.0014C15.8651 14.0014 15.636 14.4604 14.9837 14.1906C14.9837 14.1906 14.677 13.5809 14.8674 13.0834C14.8674 13.0834 14.7898 12.1303 15.442 12.2074C15.442 12.2074 16.2106 12.3616 16.2847 12.5893C16.2847 12.5893 16.475 13.0483 16.6689 12.5123L16.475 11.864C16.475 11.864 16.3622 11.5978 16.1683 11.6748C16.1683 11.6748 14.8638 11.864 14.7087 11.7134L13.6722 11.829C13.6722 11.829 13.5206 12.2109 13.9789 12.4001C13.9825 12.4001 14.0953 12.4772 14.0953 12.6314Z" fill="black"/>
						<g class="logo-text">
						<path d="M63.8694 20.7463C64.4512 20.5957 64.7931 20.1051 64.7931 19.6777V9.12756C64.7931 8.72111 64.4723 8.23057 63.8694 8.05888V7.5263C64.2361 7.5263 65.5688 7.56835 65.8896 7.56835C66.2562 7.56835 67.6312 7.5263 68.0155 7.5263V8.05888C67.4338 8.20955 67.0918 8.70009 67.0918 9.12756V13.3988H74.5061V9.12756C74.5061 8.67907 74.2064 8.23057 73.6036 8.05888V7.5263C73.9702 7.5263 75.3452 7.56835 75.7083 7.56835C76.0292 7.56835 77.3407 7.5263 77.7285 7.5263V8.05888C77.1468 8.20955 76.8048 8.70009 76.8048 9.12756V19.6777C76.8048 20.0841 77.1256 20.5747 77.7285 20.7463V21.2789C77.3618 21.2789 76.0292 21.2369 75.7083 21.2369C75.3417 21.2369 73.9878 21.2789 73.6036 21.2789V20.7463C74.1853 20.5957 74.5061 20.1262 74.5061 19.6777V14.6146H67.0918V19.6742C67.0918 20.1016 67.3915 20.5711 68.0155 20.7428V21.2754C67.6489 21.2754 66.2527 21.2334 65.8896 21.2334C65.5688 21.2334 64.2572 21.2754 63.8694 21.2754V20.7463Z" fill="#13100B"/>
						<path d="M80.9897 12.6945C81.9768 12.4177 82.9463 12.225 84.2332 12.225C86.9408 12.225 87.586 13.5915 87.586 15.0421V19.3553C87.586 19.8248 87.6706 19.9965 87.8434 19.9965C87.995 19.9965 88.2312 19.9755 88.4463 19.8248L88.7036 20.3784C88.7036 20.3784 88.0796 20.6973 87.6495 20.9776C87.304 21.1913 86.7258 21.6398 86.7258 21.6398C86.338 21.2964 85.996 20.9776 85.7598 20.5081C85.0934 21.0862 84.1274 21.4261 83.0733 21.4261C81.3563 21.4261 80.0659 20.6377 80.0659 18.8437C80.0659 17.1339 81.7618 16.3245 83.3518 16.0687C83.7396 16.0056 84.7902 15.9846 85.3719 15.9846V14.8108C85.3719 14.0014 84.9418 13.1885 83.7608 13.1885C82.7947 13.1885 81.9768 13.658 81.5255 14.5971H80.9897V12.6945ZM85.3719 16.9236H84.4059C83.2037 16.9236 82.4069 17.6069 82.4069 18.7597C82.4069 19.5936 83.031 20.1051 83.7184 20.1051C84.2543 20.1051 84.9418 19.7618 85.3719 19.1661V16.9236Z" fill="#13100B"/>
						<path d="M90.4206 20.7463C90.9142 20.5326 91.2808 20.3609 91.2808 20.0421V14.7022C91.2808 14.1906 91.0869 13.9103 90.2725 13.7421V13.2096L92.8497 12.2285H93.301L93.3644 13.4023C93.9673 12.698 94.6971 12.2285 95.7266 12.2285C96.2625 12.2285 96.756 12.3791 97.3166 12.5929V14.6847H96.7807C96.4387 14.0014 95.8359 13.574 95.233 13.574C94.0942 13.574 93.4914 14.534 93.4914 15.41V20.0421C93.4914 20.3819 93.8369 20.5326 94.3939 20.7463V21.2789C93.9003 21.2789 92.6523 21.2369 92.3737 21.2369C92.0952 21.2369 90.8895 21.2789 90.417 21.2789V20.7463H90.4206Z" fill="#13100B"/>
						<path d="M99.0759 13.9559C98.8185 13.3988 98.6034 13.2096 97.9583 12.9958V12.4632C98.4518 12.4632 99.5483 12.5053 99.8268 12.5053C100.105 12.5053 101.265 12.4632 101.759 12.4632V12.9958C101.244 13.0589 101.156 13.3392 101.156 13.4864C101.156 13.658 101.308 13.9349 101.371 14.0855L103.433 18.7211L105.454 14.1521C105.559 13.9173 105.559 13.6826 105.517 13.5109C105.475 13.3602 105.281 13.1044 104.72 12.9993V12.4667C105.193 12.4667 106.138 12.5088 106.395 12.5088C106.652 12.5088 107.597 12.4667 108.07 12.4667V12.9993C107.403 13.2341 107.04 13.5529 106.758 14.1731L103.472 21.4751H102.513L99.0759 13.9559Z" fill="#13100B"/>
						<path d="M109.882 12.6945C110.869 12.4177 111.838 12.225 113.125 12.225C115.833 12.225 116.478 13.5915 116.478 15.0421V19.3553C116.478 19.8248 116.563 19.9965 116.736 19.9965C116.887 19.9965 117.123 19.9755 117.338 19.8248L117.596 20.3784C117.596 20.3784 116.972 20.6973 116.542 20.9776C116.196 21.1913 115.618 21.6398 115.618 21.6398C115.23 21.2964 114.888 20.9776 114.652 20.5081C113.986 21.0862 113.02 21.4261 111.965 21.4261C110.248 21.4261 108.958 20.6377 108.958 18.8437C108.958 17.1339 110.654 16.3245 112.244 16.0687C112.632 16.0056 113.682 15.9846 114.264 15.9846V14.8108C114.264 14.0014 113.834 13.1885 112.653 13.1885C111.687 13.1885 110.869 13.658 110.418 14.5971H109.882V12.6945ZM114.264 16.9236H113.298C112.096 16.9236 111.299 17.6069 111.299 18.7597C111.299 19.5936 111.923 20.1051 112.611 20.1051C113.146 20.1051 113.834 19.7618 114.264 19.1661V16.9236Z" fill="#13100B"/>
						<path d="M119.313 20.7463C119.806 20.5326 120.173 20.3609 120.173 20.0421V14.7022C120.173 14.1906 119.979 13.9103 119.161 13.7421V13.2096L121.742 12.2285H122.193L122.257 13.3988C122.859 12.6945 123.589 12.225 124.619 12.225C125.158 12.225 125.652 12.3756 126.209 12.5894V14.6812H125.673C125.327 13.9979 124.728 13.5704 124.125 13.5704C122.986 13.5704 122.383 14.5305 122.383 15.4065V20.0386C122.383 20.3784 122.729 20.5291 123.286 20.7428V21.2754C122.792 21.2754 121.544 21.2334 121.266 21.2334C120.987 21.2334 119.782 21.2754 119.309 21.2754V20.7463H119.313Z" fill="#13100B"/>
						<path d="M136.694 20.3819C136.694 20.3819 136.07 20.7008 135.64 20.9811C135.294 21.1948 134.716 21.6433 134.716 21.6433C134.332 21.3 133.986 20.9811 133.75 20.4906C133.041 21.0897 131.903 21.4296 130.679 21.4296C128.317 21.4296 126.748 19.2502 126.748 16.8606C126.748 14.3413 128.338 12.2285 130.979 12.2285C131.924 12.2285 132.742 12.5263 133.341 13.0203V9.19414C133.341 8.66155 133.168 8.36022 132.354 8.18853V7.65595L135.019 6.67487H135.555V19.3588C135.555 19.8283 135.664 20 135.834 20C135.985 20 136.221 19.979 136.436 19.8283L136.694 20.3819ZM133.341 14.9159C133.211 14.0189 132.287 13.3988 131.236 13.3988C129.84 13.3988 129.064 14.958 129.064 16.6433C129.064 18.4583 129.879 20.1016 131.469 20.1016C132.199 20.1016 132.974 19.6952 133.337 19.054V14.9159H133.341Z" fill="#13100B"/>
						<path d="M145.155 20.7463C145.885 20.6167 146.185 20.0631 146.185 19.6146V9.12756C146.185 8.72112 145.885 8.23058 145.155 8.05889V7.5263C145.628 7.5263 146.96 7.56835 147.323 7.56835C147.947 7.56835 149.816 7.43871 151.17 7.43871C155.51 7.43871 158.433 10.5782 158.433 14.6356C158.433 18.5634 155.468 21.363 151.17 21.363C149.816 21.363 147.947 21.2334 147.323 21.2334C146.957 21.2334 145.649 21.2754 145.155 21.2754V20.7463ZM148.487 20.1051C148.959 20.1892 149.689 20.2313 150.355 20.2313C153.641 20.2313 155.961 17.9468 155.961 14.5515C155.961 11.2859 153.684 8.44431 150.461 8.44431C149.774 8.44431 148.956 8.48636 148.483 8.57395V20.1051H148.487Z" fill="#13100B"/>
						<path d="M160.513 20.7463C161.006 20.5326 161.373 20.3399 161.373 20.021V14.7442C161.373 14.2117 161.179 13.9103 160.361 13.7386V13.2061L163.048 12.225H163.583V20.0175C163.583 20.3574 163.929 20.5291 164.486 20.7428V21.2754C163.992 21.2754 162.744 21.2334 162.466 21.2334C162.187 21.2334 160.982 21.2754 160.509 21.2754V20.7463H160.513ZM161.352 9.76877C161.352 9.16961 161.824 8.7001 162.427 8.7001C163.026 8.7001 163.502 9.16961 163.502 9.76877C163.502 10.3679 163.03 10.8374 162.427 10.8374C161.824 10.8374 161.352 10.3679 161.352 9.76877Z" fill="#13100B"/>
						<path d="M166.594 13.9559C166.337 13.3988 166.122 13.2096 165.477 12.9958V12.4632C165.97 12.4632 167.067 12.5053 167.345 12.5053C167.624 12.5053 168.784 12.4632 169.277 12.4632V12.9958C168.763 13.0589 168.678 13.3392 168.678 13.4864C168.678 13.658 168.829 13.9349 168.893 14.0855L170.955 18.7211L172.976 14.1521C173.081 13.9173 173.081 13.6826 173.039 13.5109C172.997 13.3602 172.803 13.1044 172.242 12.9993V12.4667C172.715 12.4667 173.66 12.5088 173.917 12.5088C174.174 12.5088 175.119 12.4667 175.592 12.4667V12.9993C174.925 13.2341 174.559 13.5529 174.28 14.1731L170.994 21.4751H170.028L166.594 13.9559Z" fill="#13100B"/>
						<path d="M176.882 20.7463C177.376 20.5326 177.742 20.3399 177.742 20.021V14.7442C177.742 14.2117 177.548 13.9103 176.73 13.7386V13.2061L179.417 12.225H179.953V20.0175C179.953 20.3574 180.298 20.5291 180.855 20.7428V21.2754C180.362 21.2754 179.114 21.2334 178.835 21.2334C178.557 21.2334 177.351 21.2754 176.878 21.2754V20.7463H176.882ZM177.721 9.76877C177.721 9.16961 178.193 8.7001 178.796 8.7001C179.396 8.7001 179.872 9.16961 179.872 9.76877C179.872 10.3679 179.399 10.8374 178.796 10.8374C178.193 10.8374 177.721 10.3679 177.721 9.76877Z" fill="#13100B"/>
						<path d="M183.475 18.9068C184.162 19.9545 184.807 20.466 185.84 20.466C187.043 20.466 187.515 19.9755 187.515 19.3974C187.515 18.9909 187.321 18.63 186.933 18.4583L184.268 17.2215C183.344 16.794 182.741 16.0267 182.741 14.937C182.741 13.164 184.483 12.225 186.242 12.225C187.145 12.225 188.263 12.4387 189.165 12.6945V14.6812H188.629C188.114 13.8262 187.318 13.185 186.288 13.185C185.297 13.185 184.783 13.7632 184.783 14.3588C184.783 14.9124 184.977 15.2768 185.622 15.5747L188.329 16.8115C188.865 17.0673 189.511 17.7926 189.511 18.8192C189.511 20.4415 188.03 21.4226 185.858 21.4226C184.956 21.4226 183.838 21.2089 182.935 20.9531V18.9068H183.475Z" fill="#13100B"/>
						<path d="M191.598 20.7463C192.091 20.5326 192.458 20.3399 192.458 20.021V14.7442C192.458 14.2117 192.264 13.9103 191.45 13.7386V13.2061L194.136 12.225H194.672V20.0175C194.672 20.3574 195.018 20.5291 195.575 20.7428V21.2754C195.081 21.2754 193.833 21.2334 193.554 21.2334C193.276 21.2334 192.07 21.2754 191.598 21.2754V20.7463ZM192.437 9.76877C192.437 9.16961 192.909 8.7001 193.512 8.7001C194.111 8.7001 194.587 9.16961 194.587 9.76877C194.587 10.3679 194.115 10.8374 193.512 10.8374C192.906 10.8374 192.437 10.3679 192.437 9.76877Z" fill="#13100B"/>
						<path d="M201.952 12.225C204.766 12.225 206.765 14.2117 206.765 16.836C206.765 19.485 204.808 21.4261 201.952 21.4261C199.118 21.4261 197.14 19.485 197.14 16.836C197.14 14.2117 199.139 12.225 201.952 12.225ZM204.424 16.815C204.424 15.0421 203.673 13.185 201.952 13.185C200.232 13.185 199.481 15.0421 199.481 16.815C199.481 18.588 200.232 20.466 201.952 20.466C203.669 20.466 204.424 18.588 204.424 16.815Z" fill="#13100B"/>
						<path d="M208.63 20.7463C209.123 20.5326 209.49 20.3399 209.49 20.021V14.7442C209.49 14.2117 209.296 13.9103 208.478 13.7386V13.206L211.165 12.225H211.616L211.701 13.2516C212.451 12.6314 213.375 12.225 214.493 12.225C216.64 12.225 217.694 13.5074 217.694 15.021V20.0175C217.694 20.3574 218.04 20.5291 218.597 20.7428V21.2754C218.103 21.2754 216.855 21.2334 216.576 21.2334C216.298 21.2334 215.096 21.2754 214.62 21.2754V20.7428C215.113 20.5291 215.48 20.3364 215.48 20.0175V15.7463C215.48 14.2292 214.986 13.5459 213.654 13.5459C212.903 13.5459 212.194 13.8893 211.697 14.6566V20.0175C211.697 20.3574 212.043 20.5291 212.6 20.7428V21.2754C212.106 21.2754 210.858 21.2334 210.579 21.2334C210.301 21.2334 209.095 21.2754 208.623 21.2754V20.7463H208.63Z" fill="#13100B"/>
						<path d="M231.208 12.225C234.021 12.225 236.02 14.2117 236.02 16.836C236.02 19.485 234.063 21.4261 231.208 21.4261C228.373 21.4261 226.395 19.485 226.395 16.836C226.395 14.2117 228.394 12.225 231.208 12.225ZM233.679 16.815C233.679 15.0421 232.928 13.185 231.208 13.185C229.487 13.185 228.736 15.0421 228.736 16.815C228.736 18.588 229.487 20.466 231.208 20.466C232.928 20.466 233.679 18.588 233.679 16.815Z" fill="#13100B"/>
						<path d="M237.952 20.7463C238.446 20.5326 238.833 20.3399 238.833 20.021V13.3988H237.674V12.6314L238.833 12.4177V9.85637C238.833 7.76457 240.508 6.67487 241.883 6.67487C242.722 6.67487 243.431 6.93065 244.203 7.14438V9.04347H243.667C243.3 8.36022 242.87 7.63492 241.925 7.63492C241.453 7.63492 241.044 8.06239 241.044 9.11004V12.3756H243.3V13.3988H241.044V20.0175C241.044 20.3574 241.474 20.5712 242.14 20.7428V21.2754C241.647 21.2754 240.184 21.2334 239.905 21.2334C239.627 21.2334 238.424 21.2754 237.949 21.2754V20.7463H237.952Z" fill="#13100B"/>
						<path d="M75.7295 41.836L75.599 44.2922C75.4933 44.2712 74.9962 44.3343 74.4814 44.4429C73.2792 44.6987 72.1404 44.9755 70.8924 44.9755C66.0588 44.9755 63.4781 41.815 63.4781 37.8872C63.4781 33.9138 66.3338 30.7989 70.8924 30.7989C72.0523 30.7989 73.1488 31.0967 74.2664 31.3315C74.8692 31.4611 75.1478 31.4821 75.384 31.4821L75.5144 33.9384H74.9785C74.2064 32.4212 72.5706 31.9517 70.8959 31.9517C67.7581 31.9517 65.953 34.5796 65.953 37.8872C65.953 40.5992 67.6735 43.8227 70.8959 43.8227C72.6587 43.8227 74.3545 43.4583 75.1936 41.836H75.7295Z" fill="#13100B"/>
						<path d="M82.5797 35.7078C85.3931 35.7078 87.3921 37.6945 87.3921 40.3189C87.3921 42.9678 85.4354 44.9089 82.5797 44.9089C79.7451 44.9089 77.7673 42.9643 77.7673 40.3189C77.7673 37.6945 79.7663 35.7078 82.5797 35.7078ZM85.0511 40.3014C85.0511 38.5284 84.3002 36.6714 82.5797 36.6714C80.8627 36.6714 80.1082 38.5284 80.1082 40.3014C80.1082 42.0743 80.8592 43.9524 82.5797 43.9524C84.3002 43.9524 85.0511 42.0708 85.0511 40.3014Z" fill="#13100B"/>
						<path d="M89.2607 44.2292C89.7542 44.0154 90.1209 43.8227 90.1209 43.5039V38.2306C90.1209 37.698 89.927 37.3966 89.1126 37.225V36.6924L91.7991 35.7113H92.2504L92.335 36.7344C93.0859 36.1142 94.0096 35.7113 95.1272 35.7113C97.2743 35.7113 98.3285 36.9937 98.3285 38.5074V43.5039C98.3285 43.8472 98.674 44.0154 99.231 44.2292V44.7618C98.7374 44.7618 97.4894 44.7197 97.2108 44.7197C96.9323 44.7197 95.7266 44.7618 95.2541 44.7618V44.2292C95.7477 44.0154 96.1144 43.8227 96.1144 43.5039V39.2327C96.1144 37.7155 95.6208 37.0322 94.2881 37.0322C93.5372 37.0322 92.8285 37.3721 92.3314 38.143V43.5039C92.3314 43.8472 92.6769 44.0154 93.234 44.2292V44.7618C92.7404 44.7618 91.4924 44.7197 91.2138 44.7197C90.9353 44.7197 89.7296 44.7618 89.2571 44.7618V44.2292H89.2607Z" fill="#13100B"/>
						<path d="M101.653 36.8816H100.384V36.1773L101.653 35.8129C102.189 35.3224 102.598 34.5095 102.792 33.3988H103.867V35.855H106.423V36.8781H103.867V42.239C103.867 43.2866 104.234 43.5424 104.639 43.5424C105.196 43.5424 105.563 43.3077 105.972 42.8802L106.444 43.2866C106.124 43.8648 105.242 44.9089 103.973 44.9089C102.834 44.9089 101.653 44.3553 101.653 42.3056V36.8816Z" fill="#13100B"/>
						<path d="M108.207 44.2292C108.701 44.0154 109.067 43.8227 109.067 43.5039V38.2306C109.067 37.698 108.873 37.3967 108.059 37.225V36.6924L110.746 35.7113H111.281V43.5039C111.281 43.8473 111.627 44.0154 112.184 44.2292V44.7618C111.69 44.7618 110.442 44.7197 110.164 44.7197C109.885 44.7197 108.68 44.7618 108.207 44.7618V44.2292ZM109.043 33.2516C109.043 32.6524 109.515 32.1829 110.118 32.1829C110.721 32.1829 111.193 32.6524 111.193 33.2516C111.193 33.8473 110.721 34.3203 110.118 34.3203C109.515 34.3203 109.043 33.8508 109.043 33.2516Z" fill="#13100B"/>
						<path d="M114.112 44.2292C114.606 44.0154 114.973 43.8227 114.973 43.5039V38.2306C114.973 37.698 114.779 37.3966 113.964 37.225V36.6924L116.651 35.7113H117.102L117.187 36.7344C117.938 36.1142 118.861 35.7113 119.979 35.7113C122.13 35.7113 123.18 36.9937 123.18 38.5074V43.5039C123.18 43.8472 123.522 44.0154 124.083 44.2292V44.7618C123.589 44.7618 122.341 44.7197 122.063 44.7197C121.784 44.7197 120.582 44.7618 120.106 44.7618V44.2292C120.6 44.0154 120.966 43.8227 120.966 43.5039V39.2327C120.966 37.7155 120.473 37.0322 119.14 37.0322C118.389 37.0322 117.68 37.3721 117.183 38.143V43.5039C117.183 43.8472 117.525 44.0154 118.086 44.2292V44.7618C117.592 44.7618 116.344 44.7197 116.066 44.7197C115.787 44.7197 114.585 44.7618 114.112 44.7618V44.2292Z" fill="#13100B"/>
						<path d="M126.593 38.185C126.593 37.6735 126.42 37.3931 125.606 37.225V36.6924L128.271 35.7113H128.807V41.0932C128.807 42.5438 129.086 43.5915 130.397 43.5915C131.169 43.5915 131.878 43.143 132.308 42.7155V38.1885C132.308 37.677 132.135 37.3967 131.321 37.2285V36.6959L133.986 35.7148H134.522V42.8451C134.522 43.3147 134.607 43.4863 134.779 43.4863C134.931 43.4863 135.167 43.4653 135.379 43.3147L135.636 43.8718C135.636 43.8718 134.97 44.1906 134.54 44.4674C134.198 44.6812 133.616 45.1297 133.616 45.1297C133.228 44.7863 132.735 44.3378 132.562 43.7421C131.811 44.3833 130.799 44.9159 129.555 44.9159C127.577 44.9159 126.59 43.6791 126.59 42.225V38.185H126.593Z" fill="#13100B"/>
						<path d="M137.462 44.2292C137.956 44.0154 138.323 43.8227 138.323 43.5039V38.2306C138.323 37.698 138.129 37.3967 137.311 37.225V36.6924L139.997 35.7113H140.533V43.5039C140.533 43.8473 140.879 44.0154 141.436 44.2292V44.7618C140.942 44.7618 139.694 44.7197 139.416 44.7197C139.137 44.7197 137.931 44.7618 137.459 44.7618V44.2292H137.462ZM138.301 33.2516C138.301 32.6524 138.774 32.1829 139.377 32.1829C139.976 32.1829 140.452 32.6524 140.452 33.2516C140.452 33.8473 139.98 34.3203 139.377 34.3203C138.774 34.3203 138.301 33.8508 138.301 33.2516Z" fill="#13100B"/>
						<path d="M143.371 44.2292C143.865 44.0154 144.232 43.8227 144.232 43.5039V38.2306C144.232 37.698 144.038 37.3966 143.22 37.225V36.6924L145.906 35.7113H146.357L146.442 36.7344C147.193 36.1142 148.117 35.7113 149.234 35.7113C151.381 35.7113 152.436 36.9937 152.436 38.5074V43.5039C152.436 43.8472 152.781 44.0154 153.338 44.2292V44.7618C152.845 44.7618 151.596 44.7197 151.318 44.7197C151.039 44.7197 149.837 44.7618 149.361 44.7618V44.2292C149.855 44.0154 150.221 43.8227 150.221 43.5039V39.2327C150.221 37.7155 149.728 37.0322 148.395 37.0322C147.644 37.0322 146.936 37.3721 146.439 38.143V43.5039C146.439 43.8472 146.784 44.0154 147.341 44.2292V44.7618C146.847 44.7618 145.599 44.7197 145.321 44.7197C145.042 44.7197 143.837 44.7618 143.364 44.7618V44.2292H143.371Z" fill="#13100B"/>
						<path d="M159.867 43.1815C162.103 43.1815 163.798 44.0154 163.798 45.9145C163.798 48.3041 161.436 48.9909 159.028 48.9909C156.945 48.9909 154.752 48.4583 154.752 46.5767C154.752 45.6798 155.524 44.9124 156.536 44.506C155.954 44.2922 155.334 43.9278 155.334 43.1605C155.334 42.3896 156.3 41.836 157.029 41.5382C155.975 40.9811 155.334 40 155.334 38.7211C155.334 37.1409 156.814 35.7113 159.349 35.7113C159.952 35.7113 160.682 35.8374 161.26 36.0932H164.398V37.1198H162.723C163.132 37.5683 163.347 38.164 163.347 38.7211C163.347 40.7498 161.63 42.0322 159.286 42.0322C158.834 42.0322 158.425 41.9902 158.041 41.9026C157.742 42.0322 157.354 42.3301 157.354 42.6069C157.354 43.0554 157.72 43.185 158.45 43.185H159.867V43.1815ZM158.172 44.8038C157.657 44.8038 157.096 45.3819 157.096 46.4471C157.096 47.302 157.999 48.0273 159.268 48.0273C160.601 48.0273 161.461 47.1514 161.461 46.2754C161.461 45.3784 160.622 44.8038 159.913 44.8038H158.172ZM161.006 38.8052C161.006 37.6104 160.403 36.6678 159.307 36.6678C158.256 36.6678 157.675 37.6069 157.675 38.8262C157.675 40.021 158.256 41.0687 159.349 41.0687C160.449 41.0687 161.006 40 161.006 38.8052Z" fill="#13100B"/>
						<path d="M172.563 44.2292C173.293 44.0995 173.593 43.5459 173.593 43.0974V32.5894C173.593 32.1829 173.293 31.7134 172.563 31.5417V31.0091H180.922C181.137 31.0091 181.483 30.9671 181.719 30.8374H182.255L182.191 33.5074H181.652C181.352 32.6314 180.707 32.1829 179.674 32.1829H175.891V36.9867H179.223C179.759 36.9867 180.125 36.7309 180.404 36.1948H180.965C180.922 36.6223 180.922 37.3056 180.922 37.5403C180.922 37.7751 180.943 38.4793 180.943 38.9068H180.407C180.108 38.3953 179.741 38.1149 179.226 38.1149H175.895V43.5389H179.632C180.943 43.5389 181.589 43.0484 181.994 42.281L182.555 42.4107L182.209 44.8458C180.919 44.7162 180.189 44.7162 178.814 44.7162H174.731C174.365 44.7162 173.057 44.7583 172.563 44.7583V44.2292Z" fill="#13100B"/>
						<path d="M194.735 43.8648C194.735 43.8648 194.111 44.1836 193.681 44.4604C193.336 44.6742 192.758 45.1227 192.758 45.1227C192.373 44.7793 192.028 44.4604 191.792 43.9699C191.083 44.569 189.944 44.9089 188.721 44.9089C186.359 44.9089 184.79 42.7295 184.79 40.3399C184.79 37.8206 186.38 35.7078 189.02 35.7078C189.965 35.7078 190.783 36.0056 191.383 36.4997V32.677C191.383 32.1444 191.21 31.843 190.395 31.6714V31.1388L193.061 30.1577H193.597V42.8416C193.597 43.3112 193.706 43.4828 193.875 43.4828C194.027 43.4828 194.263 43.4618 194.478 43.3112L194.735 43.8648ZM191.383 38.3988C191.252 37.5018 190.332 36.8816 189.278 36.8816C187.882 36.8816 187.106 38.4408 187.106 40.1262C187.106 41.9412 187.921 43.5845 189.511 43.5845C190.24 43.5845 191.016 43.178 191.379 42.5403V38.3988H191.383Z" fill="#13100B"/>
						<path d="M197.246 38.185C197.246 37.6735 197.073 37.3931 196.259 37.225V36.6924L198.924 35.7113H199.46V41.0932C199.46 42.5438 199.738 43.5915 201.05 43.5915C201.822 43.5915 202.531 43.143 202.961 42.7155V38.1885C202.961 37.677 202.788 37.3967 201.973 37.2285V36.6959L204.639 35.7148H205.175V42.8451C205.175 43.3147 205.259 43.4863 205.432 43.4863C205.584 43.4863 205.82 43.4653 206.031 43.3147L206.289 43.8718C206.289 43.8718 205.622 44.1906 205.192 44.4674C204.85 44.6812 204.269 45.1297 204.269 45.1297C203.881 44.7863 203.387 44.3378 203.214 43.7421C202.464 44.3833 201.452 44.9159 200.207 44.9159C198.229 44.9159 197.242 43.6791 197.242 42.225V38.185H197.246Z" fill="#13100B"/>
						<path d="M216.238 43.2025C215.614 43.8858 214.391 44.9089 212.607 44.9089C209.448 44.9089 207.752 43.0519 207.752 40.2979C207.752 37.3721 209.857 35.7078 212.564 35.7078C213.488 35.7078 214.8 35.876 215.787 36.1563V38.164H215.251C214.8 37.246 213.897 36.6679 212.843 36.6679C211.189 36.6679 210.093 38.0974 210.093 40.0841C210.093 42.2845 211.383 43.5845 213.1 43.5845C213.96 43.5845 215.036 43.2446 215.677 42.6034L216.238 43.2025Z" fill="#13100B"/>
						<path d="M218.685 36.1773C219.675 35.9005 220.641 35.7078 221.928 35.7078C224.636 35.7078 225.281 37.0743 225.281 38.5249V42.8381C225.281 43.3077 225.366 43.4794 225.538 43.4794C225.69 43.4794 225.923 43.4583 226.138 43.3077L226.395 43.8648C226.395 43.8648 225.771 44.1836 225.341 44.4604C224.999 44.6742 224.417 45.1227 224.417 45.1227C224.029 44.7793 223.688 44.4604 223.451 43.9909C222.785 44.569 221.819 44.9089 220.765 44.9089C219.044 44.9089 217.757 44.117 217.757 42.3266C217.757 40.6167 219.457 39.8073 221.047 39.5515C221.431 39.4885 222.485 39.4674 223.067 39.4674V38.2936C223.067 37.4843 222.637 36.6714 221.456 36.6714C220.49 36.6714 219.672 37.1409 219.221 38.0799H218.685V36.1773ZM223.067 40.4065H222.101C220.899 40.4065 220.102 41.0897 220.102 42.2425C220.102 43.0764 220.726 43.588 221.414 43.588C221.949 43.588 222.637 43.2481 223.067 42.6489V40.4065Z" fill="#13100B"/>
						<path d="M227.449 36.8816V36.1773L228.715 35.8129C229.251 35.3224 229.66 34.5095 229.854 33.3988H230.929V35.855H233.485V36.8781H230.929V42.239C230.929 43.2866 231.296 43.5424 231.705 43.5424C232.262 43.5424 232.628 43.3077 233.037 42.8802L233.51 43.2866C233.189 43.8648 232.308 44.9089 231.038 44.9089C229.9 44.9089 228.719 44.3553 228.719 42.3056V36.8816H227.449Z" fill="#13100B"/>
						<path d="M235.269 44.2292C235.763 44.0154 236.129 43.8227 236.129 43.5039V38.2306C236.129 37.698 235.935 37.3967 235.117 37.225V36.6924L237.804 35.7113H238.34V43.5039C238.34 43.8473 238.685 44.0154 239.242 44.2292V44.7618C238.749 44.7618 237.501 44.7197 237.222 44.7197C236.944 44.7197 235.738 44.7618 235.266 44.7618V44.2292H235.269ZM236.105 33.2516C236.105 32.6524 236.577 32.1829 237.18 32.1829C237.779 32.1829 238.255 32.6524 238.255 33.2516C238.255 33.8473 237.783 34.3203 237.18 34.3203C236.577 34.3203 236.105 33.8508 236.105 33.2516Z" fill="#13100B"/>
						<path d="M245.624 35.7078C248.437 35.7078 250.436 37.6945 250.436 40.3189C250.436 42.9678 248.479 44.9089 245.624 44.9089C242.789 44.9089 240.811 42.9643 240.811 40.3189C240.811 37.6945 242.807 35.7078 245.624 35.7078ZM248.095 40.3014C248.095 38.5284 247.344 36.6714 245.624 36.6714C243.903 36.6714 243.152 38.5284 243.152 40.3014C243.152 42.0743 243.903 43.9524 245.624 43.9524C247.344 43.9524 248.095 42.0708 248.095 40.3014Z" fill="#13100B"/>
						<path d="M252.301 44.2292C252.795 44.0154 253.161 43.8227 253.161 43.5039V38.2306C253.161 37.698 252.967 37.3966 252.153 37.225V36.6924L254.84 35.7113H255.291L255.375 36.7344C256.126 36.1142 257.05 35.7113 258.168 35.7113C260.315 35.7113 261.369 36.9937 261.369 38.5074V43.5039C261.369 43.8472 261.714 44.0154 262.271 44.2292V44.7618C261.778 44.7618 260.53 44.7197 260.251 44.7197C259.973 44.7197 258.771 44.7618 258.295 44.7618V44.2292C258.788 44.0154 259.155 43.8227 259.155 43.5039V39.2327C259.155 37.7155 258.661 37.0322 257.329 37.0322C256.578 37.0322 255.869 37.3721 255.372 38.143V43.5039C255.372 43.8472 255.717 44.0154 256.274 44.2292V44.7618C255.781 44.7618 254.533 44.7197 254.254 44.7197C253.976 44.7197 252.77 44.7618 252.298 44.7618V44.2292H252.301Z" fill="#13100B"/>
						</g>
						</svg>